<svg width="25" height="24" viewBox="0 0 25 24" fill="none" xmlns="http://www.w3.org/2000/svg">
<g clip-path="url(#clip0_2689_5730)">
<path d="M19.3481 12.3517C19.2367 12.2402 19.1045 12.1517 18.9589 12.0913C18.8133 12.031 18.6573 11.9999 18.4997 11.9999C18.3421 11.9999 18.186 12.031 18.0405 12.0913C17.8949 12.1517 17.7626 12.2402 17.6513 12.3517L15.7385 14.2645C14.8517 14.0005 13.1969 13.4005 12.1482 12.3517C11.0994 11.3029 10.4994 9.64814 10.2354 8.76135L12.1482 6.84857C12.2597 6.73723 12.3482 6.60498 12.4085 6.45941C12.4689 6.31383 12.5 6.15778 12.5 6.00018C12.5 5.84258 12.4689 5.68653 12.4085 5.54095C12.3482 5.39538 12.2597 5.26313 12.1482 5.15179L7.34821 0.351838C7.23686 0.240304 7.10462 0.151819 6.95904 0.0914472C6.81347 0.031075 6.65741 0 6.49982 0C6.34222 0 6.18616 0.031075 6.04059 0.0914472C5.89501 0.151819 5.76277 0.240304 5.65142 0.351838L2.39706 3.60621C1.94106 4.0622 1.68426 4.68859 1.69386 5.32819C1.72146 7.03697 2.17386 12.9721 6.85141 17.6497C11.529 22.3272 17.4641 22.7784 19.1741 22.8072H19.2077C19.8413 22.8072 20.4401 22.5576 20.8937 22.104L24.148 18.8497C24.2596 18.7383 24.3481 18.6061 24.4084 18.4605C24.4688 18.3149 24.4999 18.1589 24.4999 18.0013C24.4999 17.8437 24.4688 17.6876 24.4084 17.542C24.3481 17.3965 24.2596 17.2642 24.148 17.1529L19.3481 12.3517ZM19.1957 20.406C17.6981 20.3808 12.5742 19.9788 8.54819 15.9517C4.50904 11.9125 4.11784 6.77057 4.09384 5.30299L6.49982 2.89701L9.60298 6.00018L8.0514 7.55177C7.91036 7.6927 7.80665 7.86657 7.74967 8.05764C7.69268 8.24872 7.6842 8.45098 7.725 8.64615C7.7538 8.78415 8.4582 12.0565 10.4502 14.0485C12.4422 16.0405 15.7145 16.7449 15.8525 16.7737C16.0476 16.8156 16.25 16.8078 16.4413 16.751C16.6325 16.6942 16.8064 16.5901 16.9469 16.4485L18.4997 14.8969L21.6029 18.0001L19.1957 20.406Z" fill="#8D5CF6"/>
</g>
<defs>
<clipPath id="clip0_2689_5730">
<rect width="24" height="24" fill="white" transform="translate(0.5)"/>
</clipPath>
</defs>
</svg>
