<svg width="72" height="72" viewBox="0 0 72 72" fill="none" xmlns="http://www.w3.org/2000/svg">
<g clip-path="url(#clip0_2699_859)">
<g clip-path="url(#clip1_2699_859)">
<g clip-path="url(#clip2_2699_859)">
<g clip-path="url(#clip3_2699_859)">
<path d="M66.1714 37.7429C65.9546 36.613 64.9663 35.7959 63.8158 35.7953H61.4986L61.3282 34.7741C61.1582 33.7484 60.3501 32.947 59.323 32.7857C59.095 32.7497 58.8646 32.7257 58.6378 32.6945C59.0308 30.8599 58.7043 28.9445 57.7258 27.3437C58.2428 26.0026 58.1463 24.5024 57.4618 23.2387C56.7773 21.9749 55.5735 21.0745 54.1678 20.7749C53.2691 15.9653 49.085 12.4691 44.1922 12.4397C44.0722 12.4397 43.9654 12.4553 43.8514 12.4589C43.0696 11.2311 41.7807 10.4162 40.3363 10.2366C38.8918 10.0569 37.4426 10.5312 36.3838 11.5301C35.0501 10.6631 33.4938 10.2009 31.903 10.1993C29.3399 10.2098 26.9242 11.3994 25.3534 13.4249C23.6093 12.9163 21.7285 13.2286 20.2422 14.2735C18.756 15.3185 17.8258 16.9827 17.7142 18.7961C15.8822 19.5662 14.6902 21.3592 14.689 23.3465C14.6928 23.691 14.733 24.0341 14.809 24.3701C13.1889 26.8125 12.7655 29.8584 13.6582 32.6501C13.3366 32.6945 13.0078 32.7341 12.6982 32.7797C11.6658 32.9354 10.8505 33.7372 10.6774 34.7669L10.507 35.7917H8.18382C7.03524 35.7925 6.04822 36.6069 5.82942 37.7345L0.57462 64.7129C0.369402 65.7694 0.647688 66.8624 1.3332 67.6922C2.0187 68.5219 3.03952 69.0014 4.11582 68.9993H29.1406C30.1342 70.6385 33.1534 71.3993 35.9998 71.3993C38.8162 71.3993 41.8066 70.6565 42.829 68.9993H67.8838C68.9599 69.0014 69.9804 68.522 70.6659 67.6925C71.3514 66.8631 71.6298 65.7705 71.425 64.7141L66.1714 37.7429ZM18.3178 25.5185C17.3435 24.9326 16.8785 23.7697 17.1803 22.6736C17.4822 21.5775 18.4769 20.8165 19.6138 20.8121C20.4095 20.8097 21.1583 21.1879 21.6286 21.8297C21.8841 22.1739 22.3039 22.3557 22.7298 22.3066C23.1557 22.2574 23.523 21.9848 23.6934 21.5914C23.8638 21.198 23.8113 20.7435 23.5558 20.3993C22.741 19.3102 21.5061 18.6135 20.1526 18.4793C20.5104 16.7987 21.9924 15.5956 23.7106 15.5909C23.857 15.5983 24.0029 15.6143 24.1474 15.6389C24.0509 15.8849 23.9668 16.1356 23.8954 16.3901C23.7461 17.0253 24.1317 17.6634 24.7635 17.8266C25.3953 17.9898 26.0417 17.6182 26.2186 16.9901C26.3551 16.4627 26.5647 15.9569 26.8414 15.4877C27.9059 13.7044 29.8262 12.6086 31.903 12.5993C33.0333 12.6043 34.1377 12.9378 35.0818 13.5593C34.902 14.0646 34.8067 14.5961 34.7998 15.1325C34.7998 15.7952 35.3371 16.3325 35.9998 16.3325C36.6626 16.3325 37.1998 15.7952 37.1998 15.1325C37.1998 13.7384 38.3299 12.6083 39.724 12.6083C41.1181 12.6083 42.2482 13.7384 42.2482 15.1325C42.2482 15.7952 42.7855 16.3325 43.4482 16.3325C44.111 16.3325 44.6482 15.7952 44.6482 15.1325C44.6482 15.0401 44.6254 14.9525 44.6206 14.8601C48.0566 15.0721 50.946 17.5145 51.727 20.8673C51.1673 21.0302 50.6413 21.2924 50.1742 21.6413C49.8312 21.8985 49.6516 22.3192 49.7028 22.7448C49.7541 23.1705 50.0286 23.5364 50.4228 23.7048C50.8171 23.8732 51.2712 23.8185 51.6142 23.5613C52.5732 22.8513 53.8978 22.9079 54.7926 23.6971C55.6875 24.4863 55.9092 25.7935 55.3246 26.8337C55.0634 27.293 54.6664 27.6602 54.1882 27.8849C53.6867 28.1277 53.4183 28.6838 53.5402 29.2275C53.6621 29.7712 54.1423 30.1594 54.6994 30.1649C54.8754 30.1651 55.0492 30.1262 55.2082 30.0509C55.5262 29.8968 55.8268 29.7089 56.1046 29.4905C56.7249 31.254 56.3359 33.2153 55.0894 34.6085L55.0606 34.6385C53.4973 36.332 51.0034 36.7897 48.9406 35.7617C48.7386 35.655 48.5445 35.5338 48.3598 35.3993C49.2437 34.1601 49.3658 32.5324 48.6766 31.1753C48.4837 30.7922 48.1011 30.5412 47.6729 30.5167C47.2447 30.4923 46.8359 30.6981 46.6007 31.0567C46.3654 31.4153 46.3393 31.8722 46.5322 32.2553C46.9268 33.0484 46.6807 34.0109 45.9538 34.5173C45.527 34.8015 44.9996 34.8913 44.5028 34.7646C44.0059 34.6379 43.586 34.3064 43.3474 33.8525C43.1556 33.469 42.7737 33.217 42.3457 33.1914C41.9176 33.1658 41.5084 33.3705 41.2723 33.7284C41.0361 34.0863 41.0088 34.543 41.2006 34.9265C41.9044 36.3471 43.3544 37.2443 44.9398 37.2401C45.456 37.2366 45.9668 37.136 46.4458 36.9437C46.8744 37.3189 47.3466 37.6412 47.8522 37.9037C49.5625 38.7902 51.5512 38.974 53.395 38.4161C52.2091 40.0353 50.4344 41.1235 48.4534 41.4461C47.8371 41.5464 47.4008 42.1026 47.45 42.725C47.4991 43.3475 48.0174 43.8282 48.6418 43.8305C48.7057 43.8305 48.7695 43.8256 48.8326 43.8161C49.5633 43.6896 50.2774 43.4811 50.9614 43.1945C51.3311 43.8481 51.6311 44.5386 51.8566 45.2549C51.8979 45.3799 51.919 45.5108 51.919 45.6425C51.9187 46.1611 51.609 46.6296 51.1318 46.8329C50.5798 47.0464 49.9532 46.8779 49.5826 46.4165C48.6533 45.3251 47.4363 44.5165 46.0702 44.0825C43.477 43.2137 42.4762 42.4373 42.0514 41.5925C42.6741 41.5148 43.2893 41.3864 43.891 41.2085C44.3009 41.0824 44.6124 40.7473 44.7081 40.3293C44.8039 39.9114 44.6694 39.4741 44.3553 39.1821C44.0412 38.8902 43.5953 38.788 43.1854 38.9141C42.5121 39.1207 41.817 39.2483 41.1142 39.2945C39.7602 39.4003 38.3999 39.1951 37.1374 38.6945C36.6634 38.5096 36.1243 38.6438 35.7922 39.0293C34.0451 41.0362 31.0548 41.3773 28.9005 39.8154C26.7463 38.2535 26.1408 35.3054 27.505 33.0209C27.726 32.652 27.7334 32.1932 27.5244 31.8173C27.3155 31.4415 26.9218 31.2057 26.4918 31.1987C26.0619 31.1918 25.6608 31.4148 25.4398 31.7837C25.1535 32.2709 24.9233 32.789 24.7534 33.3281C23.8084 33.2784 23.0633 32.5054 23.0482 31.5593V31.5293C23.0476 31.2126 22.9205 30.9094 22.6951 30.6869C22.4697 30.4645 22.1648 30.3414 21.8482 30.3449C21.1826 30.3515 20.6469 30.8936 20.6482 31.5593C20.6536 33.6874 22.2584 35.4712 24.3742 35.7005C24.3785 36.1027 24.415 36.504 24.4834 36.9005C21.8041 37.4802 19.0251 36.5171 17.2791 34.4037C15.5331 32.2903 15.1117 29.3795 16.1866 26.8577C16.4551 27.1293 16.7548 27.3682 17.0794 27.5693C17.6463 27.9013 18.3748 27.7158 18.7138 27.1531C19.0529 26.5903 18.8763 25.8596 18.3178 25.5137V25.5185ZM13.0378 35.1581C13.591 35.0765 14.1622 35.0045 14.7298 34.9301C16.9485 38.4756 21.192 40.1972 25.2538 39.1997C26.3452 41.2711 28.3395 42.7156 30.6479 43.1069C32.9563 43.4981 35.3152 42.7914 37.0282 41.1953C37.8437 41.4385 38.6836 41.5906 39.5326 41.6489C40.1122 43.8473 41.7874 45.1793 45.307 46.3589C46.2558 46.6563 47.1023 47.2138 47.7502 47.9681C48.4706 48.8247 49.5302 49.3225 50.6494 49.3301C51.1389 49.3299 51.6233 49.2312 52.0738 49.0397C53.4341 48.4583 54.3165 47.1217 54.3166 45.6425C54.3177 45.2567 54.2561 44.8733 54.1342 44.5073C53.8644 43.6594 53.5089 42.8412 53.0734 42.0653C55.114 40.5984 56.5355 38.4244 57.061 35.9669C57.3166 35.6632 57.5477 35.3398 57.7522 34.9997C58.1542 35.0513 58.5562 35.0969 58.9606 35.1641L63.2926 61.2209C54.8248 58.3933 45.6676 58.3933 37.1998 61.2209V46.1993C37.1998 45.5365 36.6626 44.9993 35.9998 44.9993C35.3371 44.9993 34.7998 45.5365 34.7998 46.1993V61.2257C26.333 58.3955 17.1759 58.3922 8.70702 61.2161L13.0378 35.1581ZM3.18102 66.1577C2.95427 65.8838 2.86184 65.5229 2.92902 65.1737L8.18382 38.1953H10.1038L6.33822 60.8261C6.20577 61.6498 6.50908 62.4834 7.1399 63.0294C7.77072 63.5754 8.6392 63.7561 9.43542 63.5069C15.8326 61.4343 22.648 61.0019 29.2558 62.2493L28.8982 66.5993H4.11582C3.7538 66.5995 3.41074 66.4375 3.18102 66.1577ZM35.9998 68.9993C33.109 68.9993 31.4506 68.1449 31.207 67.7645L31.6198 62.7845C32.9393 63.113 34.2306 63.546 35.4814 64.0793C35.6432 64.1572 35.8203 64.1982 35.9998 64.1993C36.1799 64.199 36.3575 64.158 36.5194 64.0793C37.7695 63.5428 39.0604 63.1071 40.3798 62.7761L40.7926 67.7633C40.549 68.1449 38.8906 68.9993 35.9998 68.9993ZM68.8186 66.1577C68.5889 66.4375 68.2458 66.5995 67.8838 66.5993H43.105L42.745 62.2409C49.3565 60.996 56.1748 61.4322 62.5738 63.5093C63.3699 63.7552 64.2365 63.572 64.8649 63.0249C65.4933 62.4779 65.7941 61.6448 65.6602 60.8225L61.8982 38.1965H63.8182L69.0742 65.1725C69.1408 65.5226 69.047 65.8841 68.8186 66.1577Z" fill="#FF7B52"/>
<path d="M32.0228 27.8215C31.5316 28.2659 31.4935 29.0244 31.9376 29.5159C32.9556 30.6398 34.3009 31.4155 35.7836 31.7335C35.1121 32.6797 34.0231 33.2412 32.8628 33.2395C32.2001 33.2395 31.6628 33.7767 31.6628 34.4395C31.6628 35.1022 32.2001 35.6395 32.8628 35.6395C35.347 35.6494 37.576 34.1151 38.4536 31.7911C41.4375 31.2966 43.7998 28.9998 44.378 26.0311C44.4674 25.6064 44.3205 25.1667 43.9939 24.8809C43.6674 24.5952 43.212 24.508 42.803 24.6529C42.394 24.7978 42.095 25.1523 42.0212 25.5799C41.7859 26.8176 41.0718 27.9124 40.034 28.6267C38.0375 29.9713 35.3599 29.6661 33.7172 27.9067C33.2728 27.4155 32.5143 27.3773 32.0228 27.8215Z" fill="#FF7B52"/>
<path d="M27.8396 26.5188C28.5024 26.5188 29.0396 25.9816 29.0396 25.3188C29.0396 24.4914 29.3684 23.6978 29.9535 23.1127C30.5386 22.5275 31.3322 22.1988 32.1596 22.1988C32.8224 22.1988 33.3596 21.6616 33.3596 20.9988C33.3596 20.3361 32.8224 19.7988 32.1596 19.7988C29.1124 19.8021 26.643 22.2716 26.6396 25.3188C26.6396 25.6371 26.7661 25.9423 26.9911 26.1674C27.2162 26.3924 27.5214 26.5188 27.8396 26.5188Z" fill="#FF7B52"/>
<path d="M37.1998 2.99961V1.79961C37.1998 1.13687 36.6625 0.599609 35.9998 0.599609C35.3371 0.599609 34.7998 1.13687 34.7998 1.79961V2.99961C34.7998 3.66235 35.3371 4.19961 35.9998 4.19961C36.6625 4.19961 37.1998 3.66235 37.1998 2.99961Z" fill="#FF7B52"/>
<path d="M55.6919 9.21013L54.4919 10.4101C54.1799 10.7114 54.0548 11.1576 54.1646 11.5771C54.2744 11.9967 54.6021 12.3243 55.0217 12.4342C55.4412 12.544 55.8874 12.4189 56.1887 12.1069L57.3887 10.9069C57.7006 10.6056 57.8257 10.1595 57.7159 9.73992C57.6061 9.32036 57.2784 8.99271 56.8589 8.88289C56.4393 8.77307 55.9932 8.89818 55.6919 9.21013Z" fill="#FF7B52"/>
<path d="M16.6594 12.4585C17.1447 12.4584 17.5821 12.1661 17.7678 11.7177C17.9535 11.2694 17.8509 10.7533 17.5078 10.4101L16.3078 9.21013C16.0065 8.89818 15.5604 8.77307 15.1408 8.88289C14.7212 8.99271 14.3936 9.32036 14.2838 9.73992C14.1739 10.1595 14.2991 10.6056 14.611 10.9069L15.811 12.1069C16.036 12.332 16.3412 12.4585 16.6594 12.4585Z" fill="#FF7B52"/>
<path d="M25.8971 7.41032C26.0548 7.40998 26.2109 7.37901 26.3567 7.31912C26.6509 7.19729 26.8845 6.96357 27.0063 6.66942C27.128 6.37527 27.1279 6.04479 27.0059 5.75072L25.6271 2.42432C25.4692 2.01917 25.1044 1.73117 24.6737 1.67152C24.243 1.61187 23.8137 1.78992 23.5516 2.1369C23.2895 2.48388 23.2356 2.94551 23.4107 3.34352L24.7883 6.66992C24.9742 7.11823 25.4118 7.41044 25.8971 7.41032Z" fill="#FF7B52"/>
<path d="M47.9399 1.77505C47.3278 1.52185 46.6264 1.81242 46.3727 2.42425L44.9938 5.75065C44.8715 6.04485 44.8712 6.37563 44.993 6.67007C45.1147 6.96451 45.3486 7.19842 45.643 7.32025C45.7889 7.38014 45.945 7.41111 46.1026 7.41145C46.588 7.41157 47.0256 7.11936 47.2114 6.67105L48.5891 3.34465C48.7114 3.05044 48.7117 2.71966 48.5899 2.42523C48.4682 2.13079 48.2343 1.89687 47.9399 1.77505Z" fill="#FF7B52"/>
<path d="M60.3898 21.6988C60.5476 21.6985 60.7038 21.6671 60.8494 21.6064L64.1746 20.2288C64.5708 20.0648 64.8493 19.7019 64.9054 19.2769C64.9614 18.8518 64.7864 18.4291 64.4464 18.1681C64.1063 17.907 63.6528 17.8472 63.2566 18.0112L59.9302 19.3888C59.3994 19.6068 59.0972 20.1701 59.2092 20.7329C59.3212 21.2958 59.816 21.7005 60.3898 21.6988Z" fill="#FF7B52"/>
<path d="M11.1503 21.6047C11.7627 21.8586 12.4649 21.5679 12.7187 20.9555C12.9725 20.3432 12.6819 19.641 12.0695 19.3871L8.7431 18.0095C8.13073 17.756 7.4288 18.047 7.1753 18.6593C6.9218 19.2717 7.21273 19.9736 7.8251 20.2271L11.1503 21.6047Z" fill="#FF7B52"/>
</g>
</g>
</g>
</g>
<defs>
<clipPath id="clip0_2699_859">
<rect width="72" height="72" fill="white"/>
</clipPath>
<clipPath id="clip1_2699_859">
<rect width="72" height="72" fill="white"/>
</clipPath>
<clipPath id="clip2_2699_859">
<rect width="70.9823" height="70.8" fill="white" transform="translate(0.508545 0.599609)"/>
</clipPath>
<clipPath id="clip3_2699_859">
<rect width="70.9823" height="70.8" fill="white" transform="translate(0.508545 0.599609)"/>
</clipPath>
</defs>
</svg>
